<svg width="135" height="40" viewBox="0 0 135 40" fill="none" xmlns="http://www.w3.org/2000/svg">
<g id="IMAGE" clip-path="url(#clip0_1_194)">
<g id="Clip path group">
<mask id="mask0_1_194" style="mask-type:luminance" maskUnits="userSpaceOnUse" x="0" y="0" width="135" height="40">
<g id="clip0_908_9901">
<path id="Vector" d="M135 0H0V40H135V0Z" fill="white"/>
</g>
</mask>
<g mask="url(#mask0_1_194)">
<g id="Group">
<path id="Vector_2" d="M130.197 40H4.73C2.12 40 0 37.872 0 35.267V4.727C0 2.12 2.122 0 4.73 0H130.197C132.803 0 135 2.12 135 4.726V35.266C135 37.872 132.803 40 130.197 40Z" fill="#A6A6A6"/>
<path id="Vector_3" d="M134.032 35.2681C134.032 37.3841 132.318 39.0981 130.198 39.0981H4.72814C2.61014 39.0981 0.890137 37.3841 0.890137 35.2681V4.72513C0.890137 2.61013 2.61014 0.890137 4.73014 0.890137H130.197C132.317 0.890137 134.031 2.61013 134.031 4.72513L134.033 35.2681H134.032Z" fill="black"/>
<path id="Vector_4" d="M30.1281 19.7838C30.0981 16.5608 32.7681 14.9938 32.8881 14.9198C31.3781 12.7168 29.0361 12.4158 28.2131 12.3918C26.2461 12.1848 24.3381 13.5688 23.3361 13.5688C22.3141 13.5688 20.7711 12.4108 19.1081 12.4448C16.9681 12.4778 14.9661 13.7168 13.8681 15.6408C11.6021 19.5638 13.2921 25.3288 15.4631 28.5008C16.5491 30.0528 17.8181 31.7868 19.4791 31.7258C21.1031 31.6588 21.7091 30.6898 23.6711 30.6898C25.6141 30.6898 26.1841 31.7268 27.8781 31.6878C29.6211 31.6598 30.7181 30.1278 31.7681 28.5608C33.0221 26.7808 33.5261 25.0288 33.5461 24.9388C33.5061 24.9248 30.1591 23.6488 30.1261 19.7848L30.1281 19.7838ZM26.9281 10.3058C27.8021 9.21282 28.4001 7.72582 28.2341 6.21582C26.9691 6.27282 25.3871 7.09182 24.4761 8.16082C23.6701 9.10382 22.9501 10.6478 23.1361 12.1008C24.5561 12.2058 26.0161 11.3828 26.9281 10.3068V10.3058ZM53.6451 31.5038H51.3751L50.1301 27.5938H45.8061L44.6211 31.5038H42.4111L46.6951 18.1958H49.3411L53.6451 31.5038ZM49.7551 25.9538L48.6301 22.4798C48.5101 22.1248 48.2881 21.2898 47.9601 19.9728H47.9201C47.7881 20.5388 47.5771 21.3748 47.2871 22.4798L46.1821 25.9548H49.7551V25.9538ZM64.6621 26.5878C64.6621 28.2198 64.2221 29.5098 63.3391 30.4578C62.5491 31.2998 61.5671 31.7208 60.3961 31.7208C59.1321 31.7208 58.2241 31.2678 57.6711 30.3608H57.6311V35.4148H55.5001V25.0668C55.5001 24.0408 55.4731 22.9868 55.4201 21.9068H57.2961L57.4161 23.4288H57.4561C58.1661 22.2818 59.2461 21.7088 60.6931 21.7088C61.8251 21.7088 62.7701 22.1568 63.5261 23.0518C64.2841 23.9478 64.6621 25.1268 64.6621 26.5878ZM62.4901 26.6658C62.4901 25.7318 62.2801 24.9618 61.8581 24.3558C61.3981 23.7238 60.7781 23.4078 60.0021 23.4078C59.4761 23.4078 58.9981 23.5838 58.5721 23.9308C58.1421 24.2808 57.8621 24.7388 57.7321 25.3048C57.6661 25.5688 57.6321 25.7848 57.6321 25.9548V27.5548C57.6321 28.2528 57.8471 28.8418 58.2751 29.3228C58.7031 29.8038 59.2591 30.0428 59.9431 30.0428C60.7461 30.0428 61.3711 29.7328 61.8181 29.1158C62.2661 28.4958 62.4901 27.6808 62.4901 26.6658ZM75.7001 26.5878C75.7001 28.2198 75.2581 29.5098 74.3751 30.4578C73.5851 31.2998 72.6051 31.7208 71.4351 31.7208C70.1701 31.7208 69.2621 31.2678 68.7101 30.3608H68.6701V35.4148H66.5381V25.0668C66.5381 24.0408 66.5111 22.9868 66.4581 21.9068H68.3341L68.4541 23.4288H68.4941C69.2041 22.2818 70.2821 21.7088 71.7311 21.7088C72.8631 21.7088 73.8081 22.1568 74.5661 23.0518C75.3211 23.9478 75.7001 25.1268 75.7001 26.5878ZM73.5271 26.6658C73.5271 25.7318 73.3171 24.9618 72.8941 24.3558C72.4341 23.7238 71.8161 23.4078 71.0391 23.4078C70.5111 23.4078 70.0341 23.5838 69.6061 23.9308C69.1781 24.2808 68.8991 24.7388 68.7681 25.3048C68.7021 25.5688 68.6681 25.7848 68.6681 25.9548V27.5548C68.6681 28.2528 68.8821 28.8418 69.3081 29.3228C69.7361 29.8028 70.2921 30.0428 70.9781 30.0428C71.7811 30.0428 72.4061 29.7328 72.8531 29.1158C73.3011 28.4958 73.5251 27.6808 73.5251 26.6658H73.5271ZM88.0401 27.7718C88.0401 28.9038 87.6461 29.8248 86.8571 30.5358C85.9901 31.3128 84.7831 31.7008 83.2321 31.7008C81.8001 31.7008 80.6521 31.4258 79.7821 30.8728L80.2771 29.0958C81.2131 29.6618 82.2401 29.9458 83.3591 29.9458C84.1611 29.9458 84.7861 29.7638 85.2351 29.4018C85.6821 29.0418 85.9051 28.5548 85.9051 27.9488C85.9051 27.4088 85.7211 26.9538 85.3521 26.5848C84.9851 26.2148 84.3721 25.8728 83.5161 25.5548C81.1861 24.6868 80.0221 23.4148 80.0221 21.7398C80.0221 20.6458 80.4301 19.7498 81.2471 19.0498C82.0611 18.3518 83.1471 18.0028 84.5051 18.0028C85.7151 18.0028 86.7221 18.2148 87.5251 18.6358L86.9921 20.3738C86.2421 19.9668 85.3941 19.7638 84.4451 19.7638C83.6951 19.7638 83.1091 19.9478 82.6891 20.3158C82.3341 20.6458 82.1561 21.0458 82.1561 21.5208C82.1561 22.0468 82.3591 22.4808 82.7661 22.8238C83.1221 23.1398 83.7661 23.4818 84.7031 23.8508C85.8481 24.3108 86.6891 24.8508 87.2301 25.4688C87.7701 26.0848 88.0401 26.8558 88.0401 27.7758V27.7718ZM95.0881 23.5078H92.7381V28.1678C92.7381 29.3518 93.1521 29.9438 93.9821 29.9438C94.3621 29.9438 94.6791 29.9108 94.9291 29.8438L94.9871 31.4638C94.5671 31.6208 94.0141 31.6998 93.3291 31.6998C92.4871 31.6998 91.8291 31.4428 91.3541 30.9298C90.8811 30.4158 90.6441 29.5538 90.6441 28.3428V23.5058H89.2441V21.9058H90.6441V20.1498L92.7371 19.5168V21.9068H95.0871V23.5068L95.0881 23.5078ZM105.69 26.6268C105.69 28.1018 105.27 29.3128 104.427 30.2598C103.544 31.2348 102.372 31.7198 100.911 31.7198C99.5041 31.7198 98.3831 31.2538 97.5471 30.3198C96.7111 29.3858 96.2931 28.2068 96.2931 26.7858C96.2931 25.2988 96.7231 24.0808 97.5861 23.1338C98.4461 22.1858 99.6091 21.7118 101.07 21.7118C102.477 21.7118 103.61 22.1788 104.465 23.1138C105.283 24.0208 105.69 25.1918 105.69 26.6268ZM103.48 26.6968C103.48 25.8108 103.29 25.0518 102.907 24.4188C102.46 23.6518 101.821 23.2688 100.993 23.2688C100.136 23.2688 99.4851 23.6528 99.0381 24.4188C98.6551 25.0518 98.4661 25.8228 98.4661 26.7348C98.4661 27.6198 98.6561 28.3788 99.0381 29.0108C99.4981 29.7768 100.143 30.1588 100.974 30.1588C101.788 30.1588 102.427 29.7688 102.888 28.9908C103.281 28.3458 103.478 27.5788 103.478 26.6948L103.48 26.6968ZM112.62 23.7828C112.41 23.7428 112.185 23.7228 111.95 23.7228C111.2 23.7228 110.62 24.0068 110.21 24.5728C109.856 25.0728 109.678 25.7058 109.678 26.4688V31.5028H107.548L107.568 24.9288C107.568 23.8228 107.54 22.8158 107.488 21.9088H109.344L109.422 23.7438H109.482C109.706 23.1138 110.062 22.6038 110.547 22.2238C111.022 21.8808 111.535 21.7098 112.087 21.7098C112.285 21.7098 112.463 21.7248 112.621 21.7498L112.62 23.7828ZM122.156 26.2518C122.156 26.6338 122.131 26.9558 122.078 27.2188H115.682C115.707 28.1658 116.016 28.8908 116.61 29.3908C117.15 29.8378 117.846 30.0608 118.702 30.0608C119.649 30.0608 120.512 29.9108 121.29 29.6078L121.624 31.0878C120.716 31.4828 119.644 31.6798 118.407 31.6798C116.919 31.6798 115.751 31.2418 114.901 30.3668C114.054 29.4908 113.629 28.3168 113.629 26.8418C113.629 25.3948 114.024 24.1898 114.815 23.2288C115.643 22.2028 116.762 21.6888 118.17 21.6888C119.552 21.6888 120.6 22.2028 121.31 23.2288C121.873 24.0438 122.156 25.0518 122.156 26.2488V26.2518ZM120.123 25.6988C120.137 25.0658 119.998 24.5188 119.709 24.0588C119.339 23.4658 118.772 23.1688 118.009 23.1688C117.312 23.1688 116.745 23.4588 116.312 24.0388C115.957 24.4988 115.746 25.0528 115.682 25.6968H120.122L120.123 25.6988Z" fill="white"/>
<path id="Vector_5" d="M49.0498 10.0101C49.0498 11.1861 48.6968 12.0721 47.9918 12.6671C47.3388 13.2171 46.4118 13.4911 45.2088 13.4911C44.6118 13.4911 44.1018 13.4661 43.6748 13.4141V6.98415C44.2318 6.89415 44.8318 6.84715 45.4798 6.84715C46.6258 6.84715 47.4898 7.09715 48.0698 7.59415C48.7228 8.15715 49.0498 8.96215 49.0498 10.0101ZM47.9448 10.0381C47.9448 9.27515 47.7428 8.69015 47.3388 8.28215C46.9338 7.87515 46.3438 7.67215 45.5668 7.67215C45.2368 7.67215 44.9568 7.69215 44.7228 7.73915V12.6271C44.8528 12.6471 45.0878 12.6571 45.4308 12.6571C46.2328 12.6571 46.8508 12.4331 47.2878 11.9871C47.7248 11.5411 47.9428 10.8911 47.9428 10.0371L47.9448 10.0381ZM54.9098 11.0371C54.9098 11.7621 54.7018 12.3571 54.2878 12.8221C53.8538 13.3021 53.2778 13.5401 52.5608 13.5401C51.8708 13.5401 51.3188 13.3101 50.9078 12.8501C50.4978 12.3921 50.2928 11.8131 50.2928 11.1151C50.2928 10.3851 50.5028 9.78515 50.9278 9.32115C51.3528 8.85715 51.9218 8.62415 52.6398 8.62415C53.3298 8.62415 53.8868 8.85415 54.3078 9.31215C54.7078 9.75915 54.9078 10.3351 54.9078 11.0391L54.9098 11.0371ZM53.8218 11.0711C53.8218 10.6371 53.7278 10.2641 53.5418 9.95315C53.3218 9.57715 53.0078 9.38915 52.6018 9.38915C52.1798 9.38915 51.8598 9.57715 51.6398 9.95315C51.4518 10.2631 51.3598 10.6431 51.3598 11.0911C51.3598 11.5261 51.4528 11.8991 51.6398 12.2111C51.8668 12.5861 52.1828 12.7741 52.5898 12.7741C52.9898 12.7741 53.3048 12.5841 53.5298 12.2001C53.7248 11.8821 53.8218 11.5061 53.8218 11.0701V11.0711ZM62.7648 8.72015L61.2898 13.4331H60.3298L59.7198 11.3861C59.5638 10.8761 59.4378 10.3661 59.3398 9.86315H59.3198C59.2298 10.3811 59.1038 10.8881 58.9418 11.3861L58.2918 13.4331H57.3218L55.9348 8.72015H57.0118L57.5448 10.9601C57.6748 11.4901 57.7798 11.9951 57.8648 12.4731H57.8848C57.9618 12.0791 58.0908 11.5771 58.2728 10.9701L58.9428 8.72015H59.7958L60.4358 10.9221C60.5918 11.4591 60.7178 11.9761 60.8158 12.4741H60.8438C60.9138 11.9891 61.0218 11.4721 61.1638 10.9221L61.7358 8.72015H62.7648ZM68.1978 13.4331H67.1498V10.7331C67.1498 9.90115 66.8338 9.48515 66.1998 9.48515C65.8898 9.48515 65.6378 9.59915 65.4428 9.82815C65.2498 10.0581 65.1528 10.3281 65.1528 10.6361V13.4321H64.1028V10.0661C64.1028 9.65215 64.0908 9.20315 64.0658 8.71615H64.9858L65.0358 9.45415H65.0658C65.1858 9.22415 65.3688 9.03615 65.6078 8.88415C65.8918 8.70915 66.2098 8.62015 66.5578 8.62015C66.9978 8.62015 67.3638 8.76215 67.6548 9.04715C68.0168 9.39715 68.1978 9.91715 68.1978 10.6091V13.4331ZM71.0878 13.4331H70.0398V6.55615H71.0878V13.4331ZM77.2578 11.0371C77.2578 11.7621 77.0508 12.3571 76.6378 12.8221C76.2028 13.3021 75.6278 13.5401 74.9098 13.5401C74.2168 13.5401 73.6658 13.3101 73.2558 12.8501C72.8458 12.3921 72.6408 11.8131 72.6408 11.1151C72.6408 10.3851 72.8528 9.78515 73.2768 9.32115C73.7008 8.85715 74.2708 8.62415 74.9868 8.62415C75.6808 8.62415 76.2368 8.85415 76.6568 9.31215C77.0568 9.75915 77.2588 10.3351 77.2588 11.0391L77.2578 11.0371ZM76.1698 11.0711C76.1698 10.6371 76.0758 10.2641 75.8898 9.95315C75.6698 9.57715 75.3558 9.38915 74.9498 9.38915C74.5278 9.38915 74.2078 9.57715 73.9898 9.95315C73.7998 10.2631 73.7078 10.6431 73.7078 11.0911C73.7078 11.5261 73.8018 11.8991 73.9878 12.2111C74.2158 12.5861 74.5318 12.7741 74.9398 12.7741C75.3398 12.7741 75.6528 12.5841 75.8798 12.2001C76.0738 11.8821 76.1698 11.5061 76.1698 11.0701V11.0711ZM82.3298 13.4331H81.3898L81.3098 12.8901H81.2818C80.9598 13.3231 80.5018 13.5401 79.9048 13.5401C79.4598 13.5401 79.0998 13.3971 78.8288 13.1131C78.5818 12.8551 78.4588 12.5331 78.4588 12.1531C78.4588 11.5771 78.6988 11.1381 79.1818 10.8331C79.6638 10.5301 80.3418 10.3811 81.2148 10.3881V10.3001C81.2148 9.68015 80.8888 9.37015 80.2348 9.37015C79.7708 9.37015 79.3608 9.48615 79.0068 9.71815L78.7938 9.03015C79.2318 8.76015 79.7738 8.62315 80.4108 8.62315C81.6428 8.62315 82.2608 9.27315 82.2608 10.5731V12.3091C82.2608 12.7791 82.2838 13.1541 82.3288 13.4321L82.3298 13.4331ZM81.2418 11.8131V11.0861C80.0858 11.0661 79.5078 11.3831 79.5078 12.0361C79.5078 12.2821 79.5738 12.4661 79.7078 12.5891C79.8438 12.7111 80.0158 12.7721 80.2208 12.7721C80.4508 12.7721 80.6668 12.6991 80.8628 12.5541C81.0598 12.4081 81.1808 12.2241 81.2258 11.9961C81.2358 11.9461 81.2428 11.8831 81.2428 11.8121L81.2418 11.8131ZM88.2848 13.4331H87.3548L87.3048 12.6761H87.2768C86.9798 13.2521 86.4738 13.5401 85.7628 13.5401C85.1948 13.5401 84.7228 13.3171 84.3468 12.8701C83.9708 12.4231 83.7848 11.8461 83.7848 11.1351C83.7848 10.3721 83.9878 9.75515 84.3948 9.28215C84.7908 8.84215 85.2748 8.62215 85.8508 8.62215C86.4848 8.62215 86.9278 8.83515 87.1808 9.26215H87.2008V6.55615H88.2488V12.1631C88.2488 12.6231 88.2598 13.0451 88.2848 13.4331ZM87.1998 11.4451V10.6591C87.1998 10.5221 87.1898 10.4121 87.1698 10.3291C87.1098 10.0761 86.9838 9.86415 86.7898 9.69315C86.5958 9.52315 86.3598 9.43615 86.0898 9.43615C85.6998 9.43615 85.3928 9.59115 85.1678 9.90215C84.9448 10.2121 84.8318 10.6101 84.8318 11.0951C84.8318 11.5611 84.9388 11.9391 85.1538 12.2301C85.3808 12.5401 85.6868 12.6961 86.0698 12.6961C86.4138 12.6961 86.6898 12.5661 86.8978 12.3081C87.0998 12.0681 87.1978 11.7811 87.1978 11.4451H87.1998ZM97.2478 11.0371C97.2478 11.7621 97.0408 12.3571 96.6278 12.8221C96.1928 13.3021 95.6178 13.5401 94.8998 13.5401C94.2098 13.5401 93.6578 13.3101 93.2458 12.8501C92.8358 12.3921 92.6308 11.8131 92.6308 11.1151C92.6308 10.3851 92.8428 9.78515 93.2668 9.32115C93.6908 8.85715 94.2608 8.62415 94.9798 8.62415C95.6698 8.62415 96.2268 8.85415 96.6468 9.31215C97.0468 9.75915 97.2468 10.3351 97.2468 11.0391L97.2478 11.0371ZM96.1618 11.0711C96.1618 10.6371 96.0678 10.2641 95.8818 9.95315C95.6598 9.57715 95.3478 9.38915 94.9398 9.38915C94.5198 9.38915 94.1998 9.57715 93.9798 9.95315C93.7898 10.2631 93.6978 10.6431 93.6978 11.0911C93.6978 11.5261 93.7918 11.8991 93.9778 12.2111C94.2058 12.5861 94.5218 12.7741 94.9298 12.7741C95.3298 12.7741 95.6448 12.5841 95.8698 12.2001C96.0638 11.8821 96.1618 11.5061 96.1618 11.0701V11.0711ZM102.883 13.4331H101.836V10.7331C101.836 9.90115 101.52 9.48515 100.886 9.48515C100.574 9.48515 100.323 9.59915 100.129 9.82815C99.9348 10.0571 99.8368 10.3281 99.8368 10.6361V13.4321H98.7868V10.0661C98.7868 9.65215 98.7768 9.20315 98.7508 8.71615H99.6708L99.7208 9.45415H99.7488C99.8718 9.22415 100.054 9.03615 100.292 8.88415C100.577 8.70915 100.894 8.62015 101.242 8.62015C101.682 8.62015 102.048 8.76215 102.339 9.04715C102.702 9.39715 102.882 9.91715 102.882 10.6091V13.4321L102.883 13.4331ZM109.936 9.50415H108.782V11.7941C108.782 12.3761 108.987 12.6671 109.392 12.6671C109.582 12.6671 109.737 12.6511 109.86 12.6171L109.887 13.4131C109.68 13.4911 109.407 13.5301 109.073 13.5301C108.659 13.5301 108.337 13.4041 108.103 13.1521C107.87 12.9001 107.753 12.4761 107.753 11.8821V9.50315H107.065V8.72015H107.755V7.85515L108.781 7.54515V8.71815H109.936V9.50415ZM115.484 13.4331H114.434V10.7531C114.434 9.90815 114.119 9.48515 113.486 9.48515C113 9.48515 112.668 9.73015 112.486 10.2201C112.456 10.3231 112.436 10.4501 112.436 10.5971V13.4321H111.39V6.55615H112.437V9.39615H112.457C112.787 8.88015 113.26 8.62215 113.873 8.62215C114.307 8.62215 114.666 8.76415 114.951 9.04915C115.307 9.40315 115.485 9.93115 115.485 10.6291V13.4321L115.484 13.4331ZM121.207 10.8531C121.207 11.0411 121.193 11.1991 121.167 11.3281H118.025C118.039 11.7941 118.189 12.1481 118.48 12.3951C118.746 12.6151 119.09 12.7251 119.51 12.7251C119.974 12.7251 120.398 12.6511 120.78 12.5021L120.944 13.2301C120.497 13.4241 119.971 13.5201 119.362 13.5201C118.632 13.5201 118.057 13.3061 117.642 12.8761C117.222 12.4461 117.016 11.8691 117.016 11.1461C117.016 10.4341 117.209 9.84215 117.598 9.37015C118.004 8.86615 118.553 8.61415 119.246 8.61415C119.924 8.61415 120.439 8.86615 120.786 9.37015C121.068 9.77015 121.207 10.2651 121.207 10.8531ZM120.207 10.5831C120.215 10.2711 120.147 10.0031 120.004 9.77715C119.822 9.48715 119.544 9.34015 119.17 9.34015C118.828 9.34015 118.55 9.48215 118.336 9.76715C118.162 9.99415 118.059 10.2651 118.026 10.5821H120.206L120.207 10.5831Z" fill="white"/>
</g>
</g>
</g>
</g>
<defs>
<clipPath id="clip0_1_194">
<rect width="135" height="40" fill="white"/>
</clipPath>
</defs>
</svg>
